<svg width="24" height="24" viewBox="0 0 24 24" fill="none" xmlns="http://www.w3.org/2000/svg">
<path d="M10 12.875C10.4832 12.875 10.875 12.4832 10.875 12C10.875 11.5168 10.4832 11.125 10 11.125V12.875ZM3 12L2.38128 11.3813C2.13103 11.6315 2.05617 12.0079 2.19161 12.3348C2.32704 12.6618 2.6461 12.875 3 12.875V12ZM6.61872 9.61872C6.96043 9.27701 6.96043 8.72299 6.61872 8.38128C6.27701 8.03957 5.72299 8.03957 5.38128 8.38128L6.61872 9.61872ZM5.38128 15.6187C5.72299 15.9604 6.27701 15.9604 6.61872 15.6187C6.96043 15.277 6.96043 14.723 6.61872 14.3813L5.38128 15.6187ZM3.61872 11.3813C3.27701 11.0396 2.72299 11.0396 2.38128 11.3813C2.03957 11.723 2.03957 12.277 2.38128 12.6187L3.61872 11.3813ZM10 11.125H3V12.875H10V11.125ZM3.61872 12.6187L6.61872 9.61872L5.38128 8.38128L2.38128 11.3813L3.61872 12.6187ZM6.61872 14.3813L3.61872 11.3813L2.38128 12.6187L5.38128 15.6187L6.61872 14.3813Z" fill="#4B465C"/>
<path d="M10 12.875C10.4832 12.875 10.875 12.4832 10.875 12C10.875 11.5168 10.4832 11.125 10 11.125V12.875ZM3 12L2.38128 11.3813C2.13103 11.6315 2.05617 12.0079 2.19161 12.3348C2.32704 12.6618 2.6461 12.875 3 12.875V12ZM6.61872 9.61872C6.96043 9.27701 6.96043 8.72299 6.61872 8.38128C6.27701 8.03957 5.72299 8.03957 5.38128 8.38128L6.61872 9.61872ZM5.38128 15.6187C5.72299 15.9604 6.27701 15.9604 6.61872 15.6187C6.96043 15.277 6.96043 14.723 6.61872 14.3813L5.38128 15.6187ZM3.61872 11.3813C3.27701 11.0396 2.72299 11.0396 2.38128 11.3813C2.03957 11.723 2.03957 12.277 2.38128 12.6187L3.61872 11.3813ZM10 11.125H3V12.875H10V11.125ZM3.61872 12.6187L6.61872 9.61872L5.38128 8.38128L2.38128 11.3813L3.61872 12.6187ZM6.61872 14.3813L3.61872 11.3813L2.38128 12.6187L5.38128 15.6187L6.61872 14.3813Z" fill="white" fill-opacity="0.2"/>
<path d="M14 11.125C13.5168 11.125 13.125 11.5168 13.125 12C13.125 12.4832 13.5168 12.875 14 12.875V11.125ZM21 12V12.875C21.3539 12.875 21.673 12.6618 21.8084 12.3348C21.9438 12.0079 21.869 11.6315 21.6187 11.3813L21 12ZM18.6187 8.38128C18.277 8.03957 17.723 8.03957 17.3813 8.38128C17.0396 8.72299 17.0396 9.27701 17.3813 9.61872L18.6187 8.38128ZM17.3813 14.3813C17.0396 14.723 17.0396 15.277 17.3813 15.6187C17.723 15.9604 18.277 15.9604 18.6187 15.6187L17.3813 14.3813ZM21.6187 12.6187C21.9604 12.277 21.9604 11.723 21.6187 11.3813C21.277 11.0396 20.723 11.0396 20.3813 11.3813L21.6187 12.6187ZM14 12.875H21V11.125H14V12.875ZM21.6187 11.3813L18.6187 8.38128L17.3813 9.61872L20.3813 12.6187L21.6187 11.3813ZM18.6187 15.6187L21.6187 12.6187L20.3813 11.3813L17.3813 14.3813L18.6187 15.6187Z" fill="#4B465C"/>
<path d="M14 11.125C13.5168 11.125 13.125 11.5168 13.125 12C13.125 12.4832 13.5168 12.875 14 12.875V11.125ZM21 12V12.875C21.3539 12.875 21.673 12.6618 21.8084 12.3348C21.9438 12.0079 21.869 11.6315 21.6187 11.3813L21 12ZM18.6187 8.38128C18.277 8.03957 17.723 8.03957 17.3813 8.38128C17.0396 8.72299 17.0396 9.27701 17.3813 9.61872L18.6187 8.38128ZM17.3813 14.3813C17.0396 14.723 17.0396 15.277 17.3813 15.6187C17.723 15.9604 18.277 15.9604 18.6187 15.6187L17.3813 14.3813ZM21.6187 12.6187C21.9604 12.277 21.9604 11.723 21.6187 11.3813C21.277 11.0396 20.723 11.0396 20.3813 11.3813L21.6187 12.6187ZM14 12.875H21V11.125H14V12.875ZM21.6187 11.3813L18.6187 8.38128L17.3813 9.61872L20.3813 12.6187L21.6187 11.3813ZM18.6187 15.6187L21.6187 12.6187L20.3813 11.3813L17.3813 14.3813L18.6187 15.6187Z" fill="white" fill-opacity="0.2"/>
<path d="M3 6V3H21V6" stroke="#4B465C" stroke-width="1.75" stroke-linecap="round" stroke-linejoin="round"/>
<path d="M3 6V3H21V6" stroke="white" stroke-opacity="0.2" stroke-width="1.75" stroke-linecap="round" stroke-linejoin="round"/>
<path d="M3 18V21H21V18" stroke="#4B465C" stroke-width="1.75" stroke-linecap="round" stroke-linejoin="round"/>
<path d="M3 18V21H21V18" stroke="white" stroke-opacity="0.2" stroke-width="1.75" stroke-linecap="round" stroke-linejoin="round"/>
</svg>
